# xmcd CD Database Entry
#
# Track frame offsets:
# 150
# 18154
# 35909
# 52474
# 76416
# 94420
# 105904
# 119197
# 132701
# 151136
# 172228
# 180970
# 195993
# 209895
# 213256
#
# Disc length: 3001 seconds
#
# Revision: 1
# Processed by: cddbd v1.4PL0 Copyright (c) Steve Scherf et al.
# Submitted via: tcd 2.0b
#
DISCID=e00bb70f
DTITLE=John Willis Joel Martinez/Blah
DYEAR=1900
DGENRE=
TTITLE0=Heartbreak's Companion
TTITLE1=That Was Then, This Is Now
TTITLE2=Dreaming Without a Sound
TTITLE3=Repent
TTITLE4=All I Have To Say
TTITLE5=Right Back At Ya
TTITLE6=Fridge Blues
TTITLE7=Hardcore Jam
TTITLE8=Hold Back On Love
TTITLE9=Take This Load
TTITLE10=The Screamer (Dry Studio)
TTITLE11=Hasn't Happened Yet
TTITLE12=Precious Hands
TTITLE13=Message
TTITLE14=The Screamer
EXTD=
EXTT0=
EXTT1=
EXTT2=
EXTT3=
EXTT4=
EXTT5=
EXTT6=
EXTT7=
EXTT8=
EXTT9=
EXTT10=
EXTT11=
EXTT12=
EXTT13=
EXTT14=
PLAYORDER=
